<svg width="14" height="14" viewBox="0 0 14 14" fill="none" xmlns="http://www.w3.org/2000/svg">
<path d="M12.0684 9.5C12.6207 9.5 13.0684 9.94772 13.0684 10.5V12C13.0684 12.5523 12.6207 13 12.0684 13H2.06839C1.5161 13 1.06839 12.5523 1.06839 12V10.5C1.06839 9.94771 1.51611 9.5 2.06839 9.5H12.0684Z" stroke="#9CA2AE" stroke-linecap="round" stroke-linejoin="round"/>
<path d="M7.06839 1C7.62067 1 8.06839 1.44772 8.06839 2V6.5C8.06839 7.05228 7.62067 7.5 7.06839 7.5H2C1.44772 7.5 1 7.05228 1 6.5L1 2C1 1.44771 1.44772 1 2 1H7.06839Z" stroke="#9CA2AE" stroke-linecap="round" stroke-linejoin="round"/>
<path d="M12.5371 1C12.8133 1 13.0371 1.22386 13.0371 1.5V2.75C13.0371 3.02614 12.8133 3.25 12.5371 3.25H10.5684C10.2923 3.25 10.0684 3.02614 10.0684 2.75V1.5C10.0684 1.22386 10.2923 1 10.5684 1H12.5371Z" stroke="#9CA2AE" stroke-linecap="round" stroke-linejoin="round"/>
<path d="M12.5371 5.25C12.8133 5.25 13.0371 5.47386 13.0371 5.75V7C13.0371 7.27614 12.8133 7.5 12.5371 7.5H10.5684C10.2923 7.5 10.0684 7.27614 10.0684 7V5.75C10.0684 5.47386 10.2923 5.25 10.5684 5.25H12.5371Z" stroke="#9CA2AE" stroke-linecap="round" stroke-linejoin="round"/>
</svg>
