<svg width="25" height="25" viewBox="0 0 25 25" fill="none" xmlns="http://www.w3.org/2000/svg">
<g clip-path="url(#clip0_222_240)">
<path fill-rule="evenodd" clip-rule="evenodd" d="M12.5002 0.520996C9.53274 0.522536 6.66257 1.57356 4.40292 3.48612C2.14327 5.39869 0.6415 8.04809 0.166126 10.9606C-0.309248 13.8731 0.272774 16.8587 1.80813 19.3837C3.34349 21.9086 5.73206 23.8083 8.54673 24.7428C9.1677 24.8581 9.4016 24.4732 9.4016 24.146C9.4016 23.8188 9.38917 22.87 9.38503 21.8327C5.90764 22.5839 5.17284 20.3653 5.17284 20.3653C4.60569 18.9246 3.78601 18.5459 3.78601 18.5459C2.65172 17.7762 3.87089 17.7906 3.87089 17.7906C5.1273 17.8791 5.7876 19.0728 5.7876 19.0728C6.90119 20.9724 8.71232 20.4229 9.42436 20.1018C9.53614 19.2971 9.86111 18.7496 10.2192 18.4389C7.44142 18.126 4.52289 17.0599 4.52289 12.2975C4.50567 11.0624 4.96662 9.86793 5.81036 8.96129C5.68203 8.64846 5.25356 7.38478 5.93248 5.66832C5.93248 5.66832 6.98192 5.33491 9.37056 6.94229C11.4194 6.38519 13.581 6.38519 15.6299 6.94229C18.0164 5.33491 19.0638 5.66832 19.0638 5.66832C19.7448 7.38066 19.3163 8.64434 19.188 8.96129C20.0344 9.86807 20.4963 11.0646 20.4775 12.3016C20.4775 17.0743 17.5528 18.126 14.7709 18.4327C15.218 18.8196 15.6174 19.5749 15.6174 20.7357C15.6174 22.3987 15.603 23.7364 15.603 24.146C15.603 24.4773 15.8286 24.8643 16.4619 24.7428C19.277 23.8081 21.6658 21.9082 23.2011 19.3828C24.7364 16.8574 25.3181 13.8713 24.8422 10.9585C24.3663 8.04579 22.8638 5.39637 20.6034 3.48413C18.343 1.57189 15.4722 0.52156 12.5043 0.520996H12.5002Z" fill="#9FA3B4"/>
<path d="M8.36226 20.8076C8.36226 20.9085 8.24636 20.9949 8.09733 20.997C7.94829 20.999 7.82617 20.9167 7.82617 20.8158C7.82617 20.715 7.94208 20.6286 8.09111 20.6265C8.24014 20.6244 8.36226 20.7047 8.36226 20.8076Z" fill="#9FA3B4"/>
<path d="M9.31458 20.6489C9.3332 20.7498 9.22971 20.8547 9.08068 20.8794C8.93165 20.9041 8.80125 20.8444 8.78262 20.7456C8.76399 20.6469 8.87162 20.5398 9.01651 20.5131C9.1614 20.4863 9.29595 20.5481 9.31458 20.6489Z" fill="#9FA3B4"/>
<path d="M7.33985 20.7377C7.3088 20.8344 7.16804 20.8776 7.02729 20.8364C6.88654 20.7953 6.7934 20.68 6.8203 20.5812C6.84721 20.4825 6.99004 20.4372 7.13286 20.4825C7.27568 20.5277 7.36675 20.6368 7.33985 20.7377Z" fill="#9FA3B4"/>
<path d="M6.4021 20.334C6.3338 20.4101 6.19512 20.3895 6.08127 20.2866C5.96743 20.1837 5.94051 20.0438 6.00882 19.9697C6.07713 19.8956 6.21581 19.9162 6.33379 20.017C6.45178 20.1179 6.47455 20.2599 6.4021 20.334Z" fill="#9FA3B4"/>
<path d="M5.73365 19.6428C5.65707 19.6963 5.52666 19.6428 5.45421 19.5357C5.43418 19.5166 5.41825 19.4935 5.40737 19.4681C5.39648 19.4426 5.39087 19.4152 5.39087 19.3876C5.39087 19.3599 5.39648 19.3325 5.40737 19.3071C5.41825 19.2816 5.43418 19.2586 5.45421 19.2394C5.5308 19.1879 5.66121 19.2394 5.73365 19.3443C5.8061 19.4493 5.80817 19.5893 5.73365 19.6428Z" fill="#9FA3B4"/>
<path d="M5.24095 18.9286C5.19808 18.9501 5.14904 18.9561 5.10222 18.9456C5.0554 18.935 5.01371 18.9087 4.98428 18.871C4.90356 18.7845 4.88699 18.6652 4.94908 18.6117C5.01118 18.5581 5.12296 18.5828 5.20369 18.6693C5.28441 18.7557 5.30304 18.8751 5.24095 18.9286Z" fill="#9FA3B4"/>
<path d="M4.73387 18.3667C4.70697 18.4284 4.60761 18.4469 4.52689 18.4037C4.44616 18.3605 4.38614 18.2802 4.41512 18.2164C4.4441 18.1526 4.54138 18.1361 4.62211 18.1794C4.70283 18.2226 4.76492 18.3049 4.73387 18.3667Z" fill="#9FA3B4"/>
</g>
<defs>
<clipPath id="clip0_222_240">
<rect width="25" height="25" fill="white"/>
</clipPath>
</defs>
</svg>
