<svg width="40" height="40" viewBox="0 0 40 40" fill="none" xmlns="http://www.w3.org/2000/svg">
<g clip-path="url(#clip0_322_150)">
<path fill-rule="evenodd" clip-rule="evenodd" d="M20.0004 0.833336C15.2525 0.835799 10.6602 2.51743 7.04478 5.57754C3.42935 8.63765 1.02651 12.8767 0.26591 17.5367C-0.494688 22.1966 0.436547 26.9737 2.89312 31.0136C5.34969 35.0536 9.1714 38.0929 13.6749 39.5883C14.6684 39.7727 15.0427 39.1569 15.0427 38.6333C15.0427 38.1097 15.0228 36.5917 15.0162 34.932C9.45233 36.134 8.27664 32.5841 8.27664 32.5841C7.36921 30.2791 6.05773 29.6732 6.05773 29.6732C4.24286 28.4416 6.19353 28.4646 6.19353 28.4646C8.20379 28.6062 9.26026 30.5162 9.26026 30.5162C11.042 33.5556 13.9398 32.6764 15.0791 32.1626C15.2579 30.8751 15.7779 29.9992 16.3508 29.5019C11.9064 29.0014 7.23673 27.2956 7.23673 19.6757C7.20919 17.6995 7.94671 15.7884 9.29669 14.3378C9.09135 13.8373 8.4058 11.8154 9.49207 9.06905C9.49207 9.06905 11.1712 8.53559 14.993 11.1074C18.2711 10.216 21.7298 10.216 25.0079 11.1074C28.8264 8.53559 30.5022 9.06905 30.5022 9.06905C31.5918 11.8088 30.9062 13.8307 30.7009 14.3378C32.0551 15.7887 32.7942 17.7031 32.7641 19.6823C32.7641 27.3187 28.0846 29.0014 23.6335 29.4921C24.3488 30.1111 24.988 31.3196 24.988 33.1769C24.988 35.8376 24.9648 37.978 24.9648 38.6333C24.9648 39.1635 25.3258 39.7826 26.3392 39.5883C30.8432 38.0928 34.6653 35.0528 37.1219 31.0122C39.5784 26.9716 40.5091 22.1938 39.7477 17.5334C38.9862 12.873 36.5822 8.63393 32.9655 5.57435C29.3489 2.51476 24.7556 0.834238 20.0071 0.833336H20.0004Z" fill="#111111"/>
<path d="M13.3797 33.2921C13.3797 33.4535 13.1943 33.5918 12.9558 33.5951C12.7174 33.5984 12.522 33.4666 12.522 33.3053C12.522 33.1439 12.7074 33.0056 12.9459 33.0023C13.1843 32.999 13.3797 33.1275 13.3797 33.2921Z" fill="#111111"/>
<path d="M14.9032 33.0386C14.933 33.1999 14.7674 33.3679 14.5289 33.4074C14.2905 33.4469 14.0818 33.3514 14.052 33.1933C14.0222 33.0353 14.1944 32.864 14.4263 32.8212C14.6581 32.7784 14.8734 32.8772 14.9032 33.0386Z" fill="#111111"/>
<path d="M11.7436 33.1802C11.6939 33.3349 11.4687 33.4041 11.2435 33.3382C11.0183 33.2724 10.8693 33.0879 10.9124 32.9299C10.9554 32.7718 11.1839 32.6994 11.4124 32.7718C11.641 32.8443 11.7867 33.0188 11.7436 33.1802Z" fill="#111111"/>
<path d="M10.2434 32.5347C10.1341 32.6566 9.91225 32.6236 9.7301 32.459C9.54795 32.2943 9.50488 32.0704 9.61417 31.9519C9.72346 31.8333 9.94536 31.8663 10.1341 32.0276C10.3229 32.189 10.3593 32.4162 10.2434 32.5347V32.5347Z" fill="#111111"/>
<path d="M9.17374 31.4283C9.0512 31.5139 8.84255 31.4283 8.72663 31.2571C8.69458 31.2264 8.6691 31.1895 8.65168 31.1488C8.63427 31.1081 8.62528 31.0642 8.62528 31.02C8.62528 30.9757 8.63427 30.9319 8.65168 30.8912C8.6691 30.8504 8.69458 30.8136 8.72663 30.7829C8.84917 30.7006 9.05783 30.7829 9.17374 30.9508C9.28965 31.1188 9.29296 31.3427 9.17374 31.4283V31.4283Z" fill="#111111"/>
<path d="M8.38549 30.2856C8.3169 30.32 8.23843 30.3296 8.16352 30.3128C8.08861 30.296 8.02191 30.2538 7.97483 30.1934C7.84566 30.0551 7.81916 29.8641 7.91851 29.7785C8.01786 29.6929 8.19672 29.7324 8.32588 29.8707C8.45504 30.009 8.48484 30.2 8.38549 30.2856Z" fill="#111111"/>
<path d="M7.57406 29.3867C7.53101 29.4855 7.37204 29.5151 7.24288 29.4459C7.11372 29.3768 7.01769 29.2484 7.06405 29.1463C7.11042 29.0442 7.26607 29.0179 7.39523 29.087C7.52439 29.1562 7.62374 29.2879 7.57406 29.3867Z" fill="#111111"/>
</g>
<defs>
<clipPath id="clip0_322_150">
<rect width="40" height="40" fill="white"/>
</clipPath>
</defs>
</svg>
