<svg width="26" height="25" viewBox="0 0 26 25" fill="none" xmlns="http://www.w3.org/2000/svg">
<g clip-path="url(#clip0_222_242)">
<path d="M13.375 2.25098C16.7148 2.25098 17.1104 2.26562 18.4238 2.32422C19.6445 2.37793 20.3037 2.58301 20.7432 2.75391C21.3242 2.97852 21.7441 3.25195 22.1787 3.68652C22.6182 4.12598 22.8867 4.54102 23.1113 5.12207C23.2822 5.56152 23.4873 6.22559 23.541 7.44141C23.5996 8.75977 23.6143 9.15527 23.6143 12.4902C23.6143 15.8301 23.5996 16.2256 23.541 17.5391C23.4873 18.7598 23.2822 19.4189 23.1113 19.8584C22.8867 20.4395 22.6133 20.8594 22.1787 21.2939C21.7393 21.7334 21.3242 22.002 20.7432 22.2266C20.3037 22.3975 19.6396 22.6025 18.4238 22.6563C17.1055 22.7148 16.71 22.7295 13.375 22.7295C10.0352 22.7295 9.63965 22.7148 8.32617 22.6563C7.10547 22.6025 6.44629 22.3975 6.00684 22.2266C5.42578 22.002 5.00586 21.7285 4.57129 21.2939C4.13184 20.8545 3.86328 20.4395 3.63867 19.8584C3.46777 19.4189 3.2627 18.7549 3.20898 17.5391C3.15039 16.2207 3.13574 15.8252 3.13574 12.4902C3.13574 9.15039 3.15039 8.75488 3.20898 7.44141C3.2627 6.2207 3.46777 5.56152 3.63867 5.12207C3.86328 4.54102 4.13672 4.12109 4.57129 3.68652C5.01074 3.24707 5.42578 2.97852 6.00684 2.75391C6.44629 2.58301 7.11035 2.37793 8.32617 2.32422C9.63965 2.26562 10.0352 2.25098 13.375 2.25098ZM13.375 0C9.98145 0 9.55664 0.0146484 8.22363 0.0732422C6.89551 0.131836 5.98242 0.34668 5.19141 0.654297C4.36621 0.976562 3.66797 1.40137 2.97461 2.09961C2.27637 2.79297 1.85156 3.49121 1.5293 4.31152C1.22168 5.10742 1.00684 6.01562 0.948242 7.34375C0.889648 8.68164 0.875 9.10645 0.875 12.5C0.875 15.8936 0.889648 16.3184 0.948242 17.6514C1.00684 18.9795 1.22168 19.8926 1.5293 20.6836C1.85156 21.5088 2.27637 22.207 2.97461 22.9004C3.66797 23.5938 4.36621 24.0234 5.18652 24.3408C5.98242 24.6484 6.89062 24.8633 8.21875 24.9219C9.55176 24.9805 9.97656 24.9951 13.3701 24.9951C16.7637 24.9951 17.1885 24.9805 18.5215 24.9219C19.8496 24.8633 20.7627 24.6484 21.5537 24.3408C22.374 24.0234 23.0723 23.5938 23.7656 22.9004C24.459 22.207 24.8887 21.5088 25.2061 20.6885C25.5137 19.8926 25.7285 18.9844 25.7871 17.6563C25.8457 16.3232 25.8604 15.8984 25.8604 12.5049C25.8604 9.11133 25.8457 8.68652 25.7871 7.35352C25.7285 6.02539 25.5137 5.11231 25.2061 4.32129C24.8984 3.49121 24.4736 2.79297 23.7754 2.09961C23.082 1.40625 22.3838 0.976563 21.5635 0.65918C20.7676 0.351562 19.8594 0.136719 18.5312 0.078125C17.1934 0.0146484 16.7686 0 13.375 0Z" fill="#9FA3B4"/>
<path d="M13.375 6.0791C9.83008 6.0791 6.9541 8.95508 6.9541 12.5C6.9541 16.0449 9.83008 18.9209 13.375 18.9209C16.9199 18.9209 19.7959 16.0449 19.7959 12.5C19.7959 8.95508 16.9199 6.0791 13.375 6.0791ZM13.375 16.665C11.0752 16.665 9.20996 14.7998 9.20996 12.5C9.20996 10.2002 11.0752 8.33496 13.375 8.33496C15.6748 8.33496 17.54 10.2002 17.54 12.5C17.54 14.7998 15.6748 16.665 13.375 16.665Z" fill="#9FA3B4"/>
<path d="M21.5488 5.8252C21.5488 6.65528 20.875 7.32422 20.0498 7.32422C19.2197 7.32422 18.5508 6.65039 18.5508 5.8252C18.5508 4.99512 19.2246 4.32617 20.0498 4.32617C20.875 4.32617 21.5488 5 21.5488 5.8252Z" fill="#9FA3B4"/>
</g>
<defs>
<clipPath id="clip0_222_242">
<rect width="25" height="25" fill="white" transform="translate(0.875)"/>
</clipPath>
</defs>
</svg>
