<svg width="26" height="25" viewBox="0 0 26 25" fill="none" xmlns="http://www.w3.org/2000/svg">
<g clip-path="url(#clip0_222_241)">
<path d="M23.5869 0H2.2832C1.2627 0 0.4375 0.805664 0.4375 1.80176V23.1934C0.4375 24.1895 1.2627 25 2.2832 25H23.5869C24.6074 25 25.4375 24.1895 25.4375 23.1982V1.80176C25.4375 0.805664 24.6074 0 23.5869 0ZM7.85449 21.3037H4.14355V9.37012H7.85449V21.3037ZM5.99902 7.74414C4.80762 7.74414 3.8457 6.78223 3.8457 5.5957C3.8457 4.40918 4.80762 3.44727 5.99902 3.44727C7.18555 3.44727 8.14746 4.40918 8.14746 5.5957C8.14746 6.77734 7.18555 7.74414 5.99902 7.74414ZM21.7412 21.3037H18.0352V15.5029C18.0352 14.1211 18.0107 12.3389 16.1064 12.3389C14.1777 12.3389 13.8848 13.8477 13.8848 15.4053V21.3037H10.1836V9.37012H13.7383V11.001H13.7871C14.2803 10.0635 15.4912 9.07227 17.293 9.07227C21.0479 9.07227 21.7412 11.543 21.7412 14.7559V21.3037Z" fill="#9FA3B4"/>
</g>
<defs>
<clipPath id="clip0_222_241">
<rect width="25" height="25" fill="white" transform="translate(0.4375)"/>
</clipPath>
</defs>
</svg>
