<svg width="41" height="40" viewBox="0 0 41 40" fill="none" xmlns="http://www.w3.org/2000/svg">
<g clip-path="url(#clip0_322_151)">
<path d="M37.5391 0H3.45312C1.82031 0 0.5 1.28906 0.5 2.88281V37.1094C0.5 38.7031 1.82031 40 3.45312 40H37.5391C39.1719 40 40.5 38.7031 40.5 37.1172V2.88281C40.5 1.28906 39.1719 0 37.5391 0ZM12.3672 34.0859H6.42969V14.9922H12.3672V34.0859ZM9.39844 12.3906C7.49219 12.3906 5.95313 10.8516 5.95313 8.95312C5.95313 7.05469 7.49219 5.51562 9.39844 5.51562C11.2969 5.51562 12.8359 7.05469 12.8359 8.95312C12.8359 10.8437 11.2969 12.3906 9.39844 12.3906ZM34.5859 34.0859H28.6562V24.8047C28.6562 22.5937 28.6172 19.7422 25.5703 19.7422C22.4844 19.7422 22.0156 22.1562 22.0156 24.6484V34.0859H16.0938V14.9922H21.7812V17.6016H21.8594C22.6484 16.1016 24.5859 14.5156 27.4688 14.5156C33.4766 14.5156 34.5859 18.4688 34.5859 23.6094V34.0859V34.0859Z" fill="#111111"/>
</g>
<defs>
<clipPath id="clip0_322_151">
<rect width="40" height="40" fill="white" transform="translate(0.5)"/>
</clipPath>
</defs>
</svg>
