<svg xmlns="http://www.w3.org/2000/svg" xmlns:xlink="http://www.w3.org/1999/xlink" width="500" zoomAndPan="magnify" viewBox="0 0 375 374.999991" height="500" preserveAspectRatio="xMidYMid meet" version="1.0"><defs><g/><clipPath id="ce8e6af230"><path d="M 11.082031 11.082031 L 363.917969 11.082031 L 363.917969 363.917969 L 11.082031 363.917969 Z M 11.082031 11.082031 " clip-rule="nonzero"/></clipPath><clipPath id="59fa9df75d"><path d="M 224.625 26.542969 L 348.457031 150.375 C 368.960938 170.878906 368.960938 204.121094 348.457031 224.625 L 224.625 348.457031 C 204.121094 368.960938 170.878906 368.960938 150.375 348.457031 L 26.542969 224.625 C 6.039062 204.121094 6.039062 170.878906 26.542969 150.375 L 150.375 26.542969 C 170.878906 6.039062 204.121094 6.039062 224.625 26.542969 Z M 224.625 26.542969 " clip-rule="nonzero"/></clipPath></defs><g clip-path="url(#ce8e6af230)"><g clip-path="url(#59fa9df75d)"><rect x="-37.5" width="450" fill="#ffffff" y="-37.499999" height="449.999989" fill-opacity="1"/></g></g><g fill="#000000" fill-opacity="1"><g transform="translate(104.668527, 235.572213)"><g><path d="M 43.359375 -144.21875 L 43.359375 -28.84375 L 93 -28.84375 L 93 0 L 10.484375 0 L 10.484375 -144.21875 Z M 43.359375 -144.21875 "/></g></g></g><g fill="#000000" fill-opacity="1"><g transform="translate(270.32264, 139.423685)"><g><path d="M -43.359375 144.21875 L -43.359375 28.84375 L -93 28.84375 L -93 0 L -10.484375 0 L -10.484375 144.21875 Z M -43.359375 144.21875 "/></g></g></g></svg>