<svg xmlns="http://www.w3.org/2000/svg" xmlns:xlink="http://www.w3.org/1999/xlink" width="1820" zoomAndPan="magnify" viewBox="0 0 1365 809.999993" height="1080" preserveAspectRatio="xMidYMid meet" version="1.0"><defs><g/></defs><g fill="#ffffff" fill-opacity="1"><g transform="translate(28.373983, 553.251033)"><g><path d="M 153.6875 -511.28125 L 153.6875 -102.25 L 329.703125 -102.25 L 329.703125 0 L 37.1875 0 L 37.1875 -511.28125 Z M 153.6875 -511.28125 "/></g></g></g><g fill="#ffffff" fill-opacity="1"><g transform="translate(615.678635, 256.741053)"><g><path d="M -153.6875 511.28125 L -153.6875 102.25 L -329.703125 102.25 L -329.703125 0 L -37.1875 0 L -37.1875 511.28125 Z M -153.6875 511.28125 "/></g></g></g><g fill="#ffffff" fill-opacity="1"><g transform="translate(640.596361, 329.892659)"><g><path d="M 5.375 0 L 5.375 -72.296875 L 29.234375 -72.296875 L 29.234375 -20.859375 L 60.21875 -20.859375 L 60.21875 0 Z M 5.375 0 "/></g></g></g><g fill="#ffffff" fill-opacity="1"><g transform="translate(725.802931, 329.892659)"><g><path d="M 38.3125 1.65625 C 34.039062 1.65625 29.890625 1.132812 25.859375 0.09375 C 21.835938 -0.9375 18.222656 -2.585938 15.015625 -4.859375 C 11.816406 -7.128906 9.285156 -10.175781 7.421875 -14 C 5.566406 -17.820312 4.640625 -22.519531 4.640625 -28.09375 L 4.640625 -72.296875 L 28.5 -72.296875 L 28.5 -29.234375 C 28.5 -25.921875 29.34375 -23.523438 31.03125 -22.046875 C 32.71875 -20.566406 35.144531 -19.828125 38.3125 -19.828125 C 41.414062 -19.828125 43.8125 -20.566406 45.5 -22.046875 C 47.1875 -23.523438 48.03125 -25.921875 48.03125 -29.234375 L 48.03125 -72.296875 L 71.890625 -72.296875 L 71.890625 -28.09375 C 71.890625 -22.519531 70.957031 -17.820312 69.09375 -14 C 67.238281 -10.175781 64.726562 -7.128906 61.5625 -4.859375 C 58.394531 -2.585938 54.796875 -0.9375 50.765625 0.09375 C 46.734375 1.132812 42.582031 1.65625 38.3125 1.65625 Z M 38.3125 1.65625 "/></g></g></g><g fill="#ffffff" fill-opacity="1"><g transform="translate(826.087995, 329.892659)"><g><path d="M 5.375 0 L 5.375 -72.296875 L 29.234375 -72.296875 L 29.234375 0 Z M 5.375 0 "/></g></g></g><g fill="#ffffff" fill-opacity="1"><g transform="translate(884.545706, 329.892659)"><g><path d="M 32.734375 1.65625 C 21.785156 1.65625 12.25 -0.617188 4.125 -5.171875 L 4.125 -26.859375 C 8.601562 -23.890625 13.148438 -21.71875 17.765625 -20.34375 C 22.378906 -18.96875 26.578125 -18.28125 30.359375 -18.28125 C 33.597656 -18.28125 35.785156 -18.570312 36.921875 -19.15625 C 38.054688 -19.738281 38.625 -20.617188 38.625 -21.796875 C 38.625 -23.035156 37.78125 -24.050781 36.09375 -24.84375 C 34.40625 -25.632812 32.21875 -26.40625 29.53125 -27.15625 C 26.851562 -27.914062 24.03125 -28.847656 21.0625 -29.953125 C 18.101562 -31.054688 15.28125 -32.484375 12.59375 -34.234375 C 9.914062 -35.992188 7.734375 -38.265625 6.046875 -41.046875 C 4.359375 -43.835938 3.515625 -47.332031 3.515625 -51.53125 C 3.515625 -56.632812 4.785156 -60.835938 7.328125 -64.140625 C 9.878906 -67.441406 13.304688 -69.898438 17.609375 -71.515625 C 21.910156 -73.140625 26.644531 -73.953125 31.8125 -73.953125 C 36.5625 -73.953125 41.296875 -73.429688 46.015625 -72.390625 C 50.734375 -71.359375 54.878906 -69.878906 58.453125 -67.953125 L 58.453125 -47.203125 C 54.941406 -49.398438 51.085938 -51.132812 46.890625 -52.40625 C 42.691406 -53.6875 38.5625 -54.289062 34.5 -54.21875 C 32.082031 -54.15625 30.410156 -53.847656 29.484375 -53.296875 C 28.554688 -52.742188 28.09375 -51.984375 28.09375 -51.015625 C 28.09375 -49.773438 28.9375 -48.757812 30.625 -47.96875 C 32.3125 -47.175781 34.492188 -46.398438 37.171875 -45.640625 C 39.859375 -44.890625 42.679688 -44 45.640625 -42.96875 C 48.609375 -41.9375 51.429688 -40.554688 54.109375 -38.828125 C 56.796875 -37.109375 58.984375 -34.890625 60.671875 -32.171875 C 62.359375 -29.453125 63.203125 -25.992188 63.203125 -21.796875 C 63.203125 -17.179688 62.410156 -13.359375 60.828125 -10.328125 C 59.242188 -7.296875 57.054688 -4.898438 54.265625 -3.140625 C 51.484375 -1.390625 48.25 -0.15625 44.5625 0.5625 C 40.882812 1.289062 36.941406 1.65625 32.734375 1.65625 Z M 32.734375 1.65625 "/></g></g></g><g fill="#000000" fill-opacity="1"><g transform="translate(844.833467, 454.800496)"><g/></g></g><g fill="#ffffff" fill-opacity="1"><g transform="translate(887.501434, 454.800496)"><g><path d="M 32.734375 1.65625 C 21.785156 1.65625 12.25 -0.617188 4.125 -5.171875 L 4.125 -26.859375 C 8.601562 -23.890625 13.148438 -21.71875 17.765625 -20.34375 C 22.378906 -18.96875 26.578125 -18.28125 30.359375 -18.28125 C 33.597656 -18.28125 35.785156 -18.570312 36.921875 -19.15625 C 38.054688 -19.738281 38.625 -20.617188 38.625 -21.796875 C 38.625 -23.035156 37.78125 -24.050781 36.09375 -24.84375 C 34.40625 -25.632812 32.21875 -26.40625 29.53125 -27.15625 C 26.851562 -27.914062 24.03125 -28.847656 21.0625 -29.953125 C 18.101562 -31.054688 15.28125 -32.484375 12.59375 -34.234375 C 9.914062 -35.992188 7.734375 -38.265625 6.046875 -41.046875 C 4.359375 -43.835938 3.515625 -47.332031 3.515625 -51.53125 C 3.515625 -56.632812 4.785156 -60.835938 7.328125 -64.140625 C 9.878906 -67.441406 13.304688 -69.898438 17.609375 -71.515625 C 21.910156 -73.140625 26.644531 -73.953125 31.8125 -73.953125 C 36.5625 -73.953125 41.296875 -73.429688 46.015625 -72.390625 C 50.734375 -71.359375 54.878906 -69.878906 58.453125 -67.953125 L 58.453125 -47.203125 C 54.941406 -49.398438 51.085938 -51.132812 46.890625 -52.40625 C 42.691406 -53.6875 38.5625 -54.289062 34.5 -54.21875 C 32.082031 -54.15625 30.410156 -53.847656 29.484375 -53.296875 C 28.554688 -52.742188 28.09375 -51.984375 28.09375 -51.015625 C 28.09375 -49.773438 28.9375 -48.757812 30.625 -47.96875 C 32.3125 -47.175781 34.492188 -46.398438 37.171875 -45.640625 C 39.859375 -44.890625 42.679688 -44 45.640625 -42.96875 C 48.609375 -41.9375 51.429688 -40.554688 54.109375 -38.828125 C 56.796875 -37.109375 58.984375 -34.890625 60.671875 -32.171875 C 62.359375 -29.453125 63.203125 -25.992188 63.203125 -21.796875 C 63.203125 -17.179688 62.410156 -13.359375 60.828125 -10.328125 C 59.242188 -7.296875 57.054688 -4.898438 54.265625 -3.140625 C 51.484375 -1.390625 48.25 -0.15625 44.5625 0.5625 C 40.882812 1.289062 36.941406 1.65625 32.734375 1.65625 Z M 32.734375 1.65625 "/></g></g></g><g fill="#ffffff" fill-opacity="1"><g transform="translate(976.73582, 454.800496)"><g><path d="M 38.3125 1.65625 C 34.039062 1.65625 29.890625 1.132812 25.859375 0.09375 C 21.835938 -0.9375 18.222656 -2.585938 15.015625 -4.859375 C 11.816406 -7.128906 9.285156 -10.175781 7.421875 -14 C 5.566406 -17.820312 4.640625 -22.519531 4.640625 -28.09375 L 4.640625 -72.296875 L 28.5 -72.296875 L 28.5 -29.234375 C 28.5 -25.921875 29.34375 -23.523438 31.03125 -22.046875 C 32.71875 -20.566406 35.144531 -19.828125 38.3125 -19.828125 C 41.414062 -19.828125 43.8125 -20.566406 45.5 -22.046875 C 47.1875 -23.523438 48.03125 -25.921875 48.03125 -29.234375 L 48.03125 -72.296875 L 71.890625 -72.296875 L 71.890625 -28.09375 C 71.890625 -22.519531 70.957031 -17.820312 69.09375 -14 C 67.238281 -10.175781 64.726562 -7.128906 61.5625 -4.859375 C 58.394531 -2.585938 54.796875 -0.9375 50.765625 0.09375 C 46.734375 1.132812 42.582031 1.65625 38.3125 1.65625 Z M 38.3125 1.65625 "/></g></g></g><g fill="#ffffff" fill-opacity="1"><g transform="translate(1077.020883, 454.800496)"><g><path d="M 5.375 0 L 5.375 -72.296875 L 29.234375 -72.296875 L 29.234375 0 Z M 5.375 0 "/></g></g></g><g fill="#ffffff" fill-opacity="1"><g transform="translate(1135.478595, 454.800496)"><g><path d="M 2.890625 0 L 2.890625 -15.1875 L 29.640625 -51.4375 L 4.546875 -51.4375 L 4.546875 -72.296875 L 62.484375 -72.296875 L 62.484375 -57.109375 L 35.625 -20.859375 L 63.71875 -20.859375 L 63.71875 0 Z M 2.890625 0 "/></g></g></g><g fill="#ffffff" fill-opacity="1"><g transform="translate(1225.952307, 454.800496)"><g><path d="M 41.625 1.65625 C 35.082031 1.65625 29.363281 0.675781 24.46875 -1.28125 C 19.582031 -3.25 15.503906 -5.972656 12.234375 -9.453125 C 8.960938 -12.929688 6.519531 -16.957031 4.90625 -21.53125 C 3.289062 -26.113281 2.484375 -30.988281 2.484375 -36.15625 C 2.484375 -41.3125 3.289062 -46.175781 4.90625 -50.75 C 6.519531 -55.332031 8.960938 -59.363281 12.234375 -62.84375 C 15.503906 -66.320312 19.582031 -69.039062 24.46875 -71 C 29.363281 -72.96875 35.082031 -73.953125 41.625 -73.953125 C 48.164062 -73.953125 53.878906 -72.96875 58.765625 -71 C 63.648438 -69.039062 67.710938 -66.320312 70.953125 -62.84375 C 74.191406 -59.363281 76.632812 -55.332031 78.28125 -50.75 C 79.9375 -46.175781 80.765625 -41.3125 80.765625 -36.15625 C 80.765625 -30.988281 79.9375 -26.113281 78.28125 -21.53125 C 76.632812 -16.957031 74.191406 -12.929688 70.953125 -9.453125 C 67.710938 -5.972656 63.648438 -3.25 58.765625 -1.28125 C 53.878906 0.675781 48.164062 1.65625 41.625 1.65625 Z M 41.625 -20.03125 C 46.238281 -20.03125 49.816406 -21.476562 52.359375 -24.375 C 54.910156 -27.269531 56.1875 -31.195312 56.1875 -36.15625 C 56.1875 -41.101562 54.910156 -45.023438 52.359375 -47.921875 C 49.816406 -50.816406 46.238281 -52.265625 41.625 -52.265625 C 37.007812 -52.265625 33.410156 -50.816406 30.828125 -47.921875 C 28.242188 -45.023438 26.953125 -41.101562 26.953125 -36.15625 C 26.953125 -31.195312 28.242188 -27.269531 30.828125 -24.375 C 33.410156 -21.476562 37.007812 -20.03125 41.625 -20.03125 Z M 41.625 -20.03125 "/></g></g></g></svg>