<svg width="15" height="14" viewBox="0 0 15 14" fill="none" xmlns="http://www.w3.org/2000/svg">
<path d="M5.63776 8.34657H1.48818C1.21857 8.34657 1 8.56514 1 8.83475V12.9843C1 13.2539 1.21857 13.4725 1.48818 13.4725H5.63776C5.90738 13.4725 6.12595 13.2539 6.12595 12.9843V8.83475C6.12595 8.56514 5.90738 8.34657 5.63776 8.34657Z" stroke="#9CA2AE" stroke-linecap="round" stroke-linejoin="round"/>
<path d="M12.7638 8.34657H8.61413C8.34451 8.34657 8.12595 8.56514 8.12595 8.83475V12.9843C8.12595 13.2539 8.34451 13.4725 8.61413 13.4725H12.7638C13.0334 13.4725 13.2519 13.2539 13.2519 12.9843V8.83475C13.2519 8.56514 13.0334 8.34657 12.7638 8.34657Z" stroke="#9CA2AE" stroke-linecap="round" stroke-linejoin="round"/>
<path d="M5.63776 1H1.48818C1.21857 1 1 1.21857 1 1.48818V5.63776C1 5.90738 1.21857 6.12595 1.48818 6.12595H5.63776C5.90738 6.12595 6.12595 5.90738 6.12595 5.63776V1.48818C6.12595 1.21857 5.90738 1 5.63776 1Z" stroke="#9CA2AE" stroke-linecap="round" stroke-linejoin="round"/>
<path d="M8.35139 3.94132C8.0508 3.88903 8.0508 3.45752 8.35139 3.40523C9.44036 3.21578 10.3065 2.38633 10.5429 1.30658L10.561 1.22381C10.626 0.926731 11.049 0.924882 11.1166 1.22138L11.1386 1.31783C11.3838 2.3925 12.2501 3.21494 13.3361 3.40386C13.6382 3.45642 13.6382 3.89013 13.3361 3.94269C12.2501 4.13162 11.3838 4.95406 11.1386 6.02872L11.1166 6.12518C11.049 6.42168 10.626 6.41983 10.561 6.12275L10.5429 6.03998C10.3065 4.96022 9.44036 4.13078 8.35139 3.94132Z" stroke="#9CA2AE" stroke-linecap="round" stroke-linejoin="round"/>
</svg>
